<svg id='Gift_24' width='24' height='24' viewBox='0 0 24 24' xmlns='http://www.w3.org/2000/svg' xmlns:xlink='http://www.w3.org/1999/xlink'><rect width='24' height='24' stroke='none' fill='#000000' opacity='0'/>


<g transform="matrix(0.42 0 0 0.42 12 12)" >
<g style="" >
<g transform="matrix(1 0 0 1 0 7)" >
<path style="stroke: none; stroke-width: 1; stroke-dasharray: none; stroke-linecap: butt; stroke-dashoffset: 0; stroke-linejoin: miter; stroke-miterlimit: 4; fill: rgb(211,47,47); fill-rule: nonzero; opacity: 1;" transform=" translate(-24, -31)" d="M 38 42 L 10 42 C 8.9 42 8 41.1 8 40 L 8 20 L 40 20 L 40 40 C 40 41.1 39.1 42 38 42 z" stroke-linecap="round" />
</g>
<g transform="matrix(1 0 0 1 0 -8)" >
<path style="stroke: none; stroke-width: 1; stroke-dasharray: none; stroke-linecap: butt; stroke-dashoffset: 0; stroke-linejoin: miter; stroke-miterlimit: 4; fill: rgb(244,67,54); fill-rule: nonzero; opacity: 1;" transform=" translate(-24, -16)" d="M 42 20 L 6 20 L 6 14 C 6 12.9 6.9 12 8 12 L 40 12 C 41.1 12 42 12.9 42 14 L 42 20 z" stroke-linecap="round" />
</g>
<g transform="matrix(1 0 0 1 3 0)" >
<path style="stroke: none; stroke-width: 1; stroke-dasharray: none; stroke-linecap: butt; stroke-dashoffset: 0; stroke-linejoin: miter; stroke-miterlimit: 4; fill: rgb(255,143,0); fill-rule: nonzero; opacity: 1;" transform=" translate(-27, -24)" d="M 22 20 L 26 20 L 26 42 L 22 42 z M 32 6 L 28 6 L 22 12 L 26 12 z" stroke-linecap="round" />
</g>
<g transform="matrix(1 0 0 1 -3 -11)" >
<path style="stroke: none; stroke-width: 1; stroke-dasharray: none; stroke-linecap: butt; stroke-dashoffset: 0; stroke-linejoin: miter; stroke-miterlimit: 4; fill: rgb(255,193,7); fill-rule: nonzero; opacity: 1;" transform=" translate(-21, -13)" d="M 20 6 L 16 6 L 22 12 L 22 20 L 26 20 L 26 12 z" stroke-linecap="round" />
</g>
</g>
</g>
</svg>